PathFileType	4	(X/Y/Z)	57_2_28_p1_0-414_filt_butterworth.trc
DataRate	CameraRate	NumFrames	NumMarkers	Units	OrigDataRate	OrigDataStartFrame	OrigNumFrames
59.0	59.0	6	27	m	59.0	0	414
Frame#	Time	RHip			RKnee			RAnkle			RBigToe			RSmallToe			RHeel			LHip			LKnee			LAnkle			LBigToe			LSmallToe			LHeel			Neck			Head			Nose			RShoulder			RElbow			RWrist			RThumb			RIndex			RPinky			LShoulder			LElbow			LWrist			LThumb			LIndex			LPinky			
		X1	Y1	Z1	X2	Y2	Z2	X3	Y3	Z3	X4	Y4	Z4	X5	Y5	Z5	X6	Y6	Z6	X7	Y7	Z7	X8	Y8	Z8	X9	Y9	Z9	X10	Y10	Z10	X11	Y11	Z11	X12	Y12	Z12	X13	Y13	Z13	X14	Y14	Z14	X15	Y15	Z15	X16	Y16	Z16	X17	Y17	Z17	X18	Y18	Z18	X19	Y19	Z19	X20	Y20	Z20	X21	Y21	Z21	X22	Y22	Z22	X23	Y23	Z23	X24	Y24	Z24	X25	Y25	Z25	X26	Y26	Z26	X27	Y27	Z27	
0	0.0	0.2589262014676485	0.6219077812752852	0.8004676484121884	0.266599325435697	0.19915663632626293	0.8171274567962808	0.26772441201697045	-0.2323204596612516	0.8359913814670856	0.24359362609349441	-0.24188187359927693	0.6730908736890001	0.3049077452714103	-0.22825672820018103	0.6875965021343712	0.2437318631356371	-0.30578304902897213	0.9094684789387787	0.048953071530717214	0.5941803971851014	0.8237450219352458	0.06525026484874227	0.17936716470201974	0.8211061823984047	0.09329522655531228	-0.24257550150153165	0.8420471152678265	0.09389889492823747	-0.2157279365558158	0.6386182551693524	0.04431744247284215	-0.23130945861492053	0.6765157620116247	0.10162717657811848	-0.3031500004059678	0.8868024480835649	0.1361283718775311	1.1601096885027167	0.8217439902423526	0.1330403653518951	1.4103212262876033	0.8070178599024438	0.12704905475670758	1.282949323648365	0.7029227440528533	0.2925588693168033	1.099861184621541	0.809794529187124	0.33500332101826763	0.8375225355076809	0.75067360543896	0.2212572096750882	0.6304644243895847	0.685409781961235	0.15881327428041472	0.5524322376509536	0.6544977112849526	0.15340078716352246	0.5376347694042181	0.6532337034456835	0.16131953846508398	0.5296121330233523	0.6794225332660984	-0.02129298598344017	1.0813540619713045	0.8144181411603102	-0.032958649657092054	0.8114747453860587	0.7611495981736216	0.08872531657544715	0.6310676906428352	0.6948679476272945	0.16772565319862234	0.6010331867020268	0.6528066573494777	0.16975856381505744	0.555626239299912	0.6519402116769992	0.1361309140165412	0.5326796074623235	0.6757230977966667	
1	0.0169491525423728	0.25883963369408614	0.6210324136953342	0.800528198264959	0.26612793967074916	0.19970399012744264	0.8163965423878188	0.2680662091615505	-0.23237596203755898	0.8360893628913796	0.24300035171996268	-0.24482002095282712	0.6732163159822173	0.3042258809738258	-0.23125301805944676	0.6871430076580023	0.2448730687165477	-0.3057364967773645	0.9098504771203421	0.05055646235760395	0.5952989650654635	0.8216390381666433	0.06522965846449186	0.18004261144066727	0.8211820938584353	0.09352227672988431	-0.24127395815038594	0.8420663119811027	0.09388133275646621	-0.21345083763677683	0.6382046235436776	0.04469151974790837	-0.23065465485979048	0.6757515939013857	0.1026133515443536	-0.30299191611282494	0.8894864813415336	0.13659403786619767	1.1604966052790564	0.8203939644442781	0.1299746954819786	1.4112641510141417	0.8013373157369297	0.12693157590407675	1.2831011067552185	0.7025462351116477	0.2923971619376126	1.1001165874024235	0.8084274654047758	0.33222742202565275	0.8382959491513439	0.7494870624308885	0.2230721554141855	0.6339318644147905	0.6864367102852871	0.15988972015092007	0.5525996402211097	0.6562620546078448	0.15633116906014738	0.5349828289284447	0.6602321645201636	0.16222758650092656	0.5293322414600053	0.682123694651541	-0.0216467696963289	1.0816868257343886	0.8126751899863738	-0.031806257992949435	0.8101074134145133	0.7661801008475757	0.0887410933007029	0.632155322965979	0.6946886969655345	0.1675787733798865	0.5983969784051765	0.6527512731234798	0.16783749358958558	0.5542222377952566	0.6587131535659627	0.1355122263404094	0.5361630889254737	0.6742315367484698	
2	0.0338983050847457	0.2587641525054745	0.6202928370367069	0.8005697297613515	0.2657052855242605	0.20019647673517865	0.8155867300485174	0.268399345788415	-0.2324203215270658	0.836175296061063	0.24263538391090836	-0.24659433423255436	0.6731936359421821	0.30383646887889487	-0.23276229846378096	0.6869128243801035	0.24588523419368513	-0.30570996781647786	0.910168729220696	0.051809723612485016	0.5962117414748578	0.8198699920040404	0.06521846303588189	0.18050591182658882	0.821204934233111	0.09370897745338032	-0.2403957383623601	0.8421030092540285	0.09368703211587098	-0.21185130148394657	0.6378937090383676	0.04431316743824296	-0.23147360205047973	0.6769733178307926	0.10342451646541773	-0.30306037111237394	0.8917449294742398	0.1372751553899469	1.160988380142546	0.8183518928200668	0.12791223715774924	1.4114396051501337	0.7974356269385261	0.1268551271824013	1.2831941200720087	0.7023010284280444	0.2923692685265123	1.1001971885732296	0.8077634890115775	0.3301100611914856	0.8382290940801496	0.7491592197097938	0.22402135166931314	0.6351138637720528	0.6870444086808738	0.16038866218627773	0.5524626095649104	0.6566459771314429	0.15782550360023398	0.5336147333871795	0.6634481300158571	0.16255706073753382	0.5292220978972553	0.6825337879756485	-0.021757342823386053	1.0818104616294382	0.8120133937668117	-0.0309438202484666	0.8091520469692544	0.7697020192020472	0.08883777561160877	0.6320367444547693	0.6946198513289379	0.1674301967808552	0.5956961193942323	0.6528910599392366	0.16672181678122192	0.5526934220017415	0.6631140088748073	0.13526262011258275	0.5376825661664207	0.6735467570925147	
3	0.0508474576271186	0.2586991309976501	0.6196791836261644	0.8005941873678757	0.26532985017820687	0.20063310726785707	0.814712954768223	0.26872234535027	-0.23245454221761777	0.8362499758070236	0.24246117425995303	-0.24739516948023546	0.673071035473041	0.3036812431614457	-0.23309313441691806	0.6868497657944513	0.2467754366013938	-0.3057015852087914	0.9104281894087872	0.052745786856723695	0.5969367999105084	0.8184124483029953	0.06521605554160538	0.18077874442630004	0.8211799114699603	0.09385811973648195	-0.2398963896653132	0.8421541168886364	0.09339768643304842	-0.21082077444111855	0.6376758972466995	0.04343537694514118	-0.23326717099901262	0.6795017845527975	0.1040742840014589	-0.3033279316135144	0.8936092823981006	0.1380859736997402	1.1615367605777223	0.8158869479168909	0.1267078002508901	1.411041687776306	0.7950125816613782	0.12681181416075674	1.2832402287153355	0.702162281730107	0.29244113400388727	1.1001475382676627	0.8076550970298447	0.3285701100936821	0.8375420505472053	0.749472554871111	0.22428616537875792	0.6345427330878791	0.6873123135497672	0.16041099189186847	0.5521366958125842	0.6559061153038759	0.15819803622905423	0.533258617100687	0.6637159114270027	0.16243475946207223	0.5292561157367432	0.6811846368027784	-0.021684952534250984	1.0817757360865135	0.8121706415673278	-0.030327858061922595	0.8085310115188176	0.7719729740676768	0.08899430439314926	0.631016022486926	0.6946227321918568	0.16728926629732996	0.5929735380858547	0.6531681978504146	0.1662484154209455	0.551055292259673	0.6655893292415688	0.13529359141101882	0.5376626626370308	0.6734465115287446	
4	0.0677966101694915	0.25864394226644954	0.619181585790468	0.8006035155510418	0.265000120814564	0.2010128928438634	0.8137901515367818	0.26903373129982155	-0.2324796281970612	0.836314196960149	0.24244017436071827	-0.24741288273764722	0.672896716478941	0.3037019379963065	-0.23255409092259255	0.6868976453948221	0.24755075297401813	-0.3057094720167848	0.9106338118535626	0.053397583651683254	0.5974922138696401	0.8172409719190656	0.0652218129603553	0.18088278780631736	0.8211122335165125	0.09397249458987085	-0.23973145958710446	0.8422165446869588	0.09309498913459523	-0.2102507028520862	0.6375415737619505	0.04231113966989824	-0.23553623251741412	0.6826578448203521	0.10457626681262515	-0.303767163825146	0.8951110300295336	0.13894074204653895	1.1620934940691217	0.8132683022819229	0.12621619463308417	1.4102644979733836	0.7937679680596308	0.12679374240821853	1.2832512978017974	0.7021051527458984	0.2925787032901225	1.1000121866194252	0.8079547864818937	0.3275264403101583	0.836454898805619	0.7502095455102749	0.22404796348080666	0.6327507829887772	0.6873198612937395	0.16005760077307313	0.551737449094359	0.6542991055732724	0.1577630123918802	0.533642614389232	0.6618698202478392	0.16198748096170834	0.5294087083801109	0.6786080646972884	-0.021489845998563066	1.0816334155356753	0.8128848224536259	-0.02991489307159646	0.8081666725317377	0.7732505862751055	0.08918962053030886	0.6293972244401688	0.6946586610286437	0.16716532482511237	0.5902721628967041	0.6535248669106808	0.1662541715397355	0.5493233489093567	0.666585666304283	0.13551663631367517	0.5365280017891698	0.6737085527571032	
5	0.0847457627118644	0.25859795940770947	0.6187901758563789	0.8005996587773604	0.2647145846153077	0.2013348445815841	0.8128332553440404	0.2693320270897756	-0.23249658355324207	0.8363687543513265	0.2425348358068261	-0.24683783004657223	0.6727188808640283	0.30384028755830617	-0.23145373298454341	0.6870002766749924	0.24821826034590252	-0.30573175130293734	0.9107905507239693	0.05379804555872699	0.5978960568494774	0.8163301277078092	0.06523511227082465	0.18083972053315664	0.821007108320296	0.09405489302422866	-0.2398564956555927	0.8422872024510285	0.09286063364710823	-0.21003253306064687	0.6374811241773977	0.04119344701380949	-0.23778165741771382	0.6857623493864081	0.10494407755906446	-0.3043506339561688	0.8962816622849556	0.13975370968130482	1.1626103281012796	0.8107651284623356	0.12629223017601487	1.409302134822092	0.793401574287429	0.12679301749386243	1.2832391924479938	0.7021047992034823	0.29274792130560345	1.09983568376222	0.8085150543900406	0.3268979234188308	0.8351877191084953	0.7511526692227204	0.22348811291374676	0.6302703241012522	0.687146488314563	0.15942938033527287	0.5513804195404605	0.6520815843877612	0.15683467753398422	0.5344948595730765	0.658744167972606	0.161342023523609	0.5296542892289976	0.6753358952235363	-0.02123227038596172	1.0814342664069816	0.8138938254914105	-0.02966144691576731	0.807981395476548	0.7737924766549737	0.08940266490807232	0.6274844176922143	0.694688959313651	0.16706771526000436	0.5876349222434385	0.6539032471737019	0.16657596716857143	0.5475130922910967	0.6665495717009864	0.13584325089850968	0.5347032070747015	0.674110633477534	
